<?xml version="1.0" encoding="UTF-8"?>
<svg width="148px" height="124px" viewBox="0 0 148 124" version="1.1" xmlns="http://www.w3.org/2000/svg" xmlns:xlink="http://www.w3.org/1999/xlink">
    <!-- Generator: Sketch 43.2 (39069) - http://www.bohemiancoding.com/sketch -->
    <title>Page 1</title>
    <desc>Created with Sketch.</desc>
    <defs>
        <polygon id="path-1" points="0 46.31635 0 0.004 147.494 0.004 147.494 46.31635 147.494 92.6287 0 92.6287 0 46.31635"></polygon>
        <polygon id="path-3" points="0.671324734 79 70.6067 79 70.6067 0.8333 0.671324734 0.8333"></polygon>
    </defs>
    <g id="Page-1" stroke="none" stroke-width="1" fill="none" fill-rule="evenodd">
        <g transform="translate(0.000000, -1.000000)">
            <g id="Group-3" opacity="0.65" transform="translate(0.000000, 0.996000)">
                <mask id="mask-2" fill="white">
                    <use xlink:href="#path-1"></use>
                </mask>
                <g id="Clip-2"></g>
                <path d="M134.519,40.3037 L134.519,40.2397 C134.519,24.7307 121.902,12.1147 106.394,12.1147 C102.896,12.1147 99.478,12.7567 96.273,13.9997 C89.705,5.2357 79.427,0.0037 68.166,0.0037 C51.126,0.0037 36.876,12.1787 33.659,28.2857 C33.169,28.2637 32.679,28.2527 32.188,28.2527 C14.439,28.2527 0,42.6917 0,60.4407 C0,78.1897 14.439,92.6287 32.188,92.6287 L35.523,92.6287 L35.523,79.6287 L32.188,79.6287 C21.608,79.6287 13,71.0217 13,60.4407 C13,49.8607 21.608,41.2527 32.188,41.2527 C34.036,41.2527 35.873,41.5187 37.649,42.0447 C37.649,42.0447 43.52,43.7837 45.014,44.2257 C45.763,44.4467 46.206,43.7917 46.192,43.3177 C46.15,41.9687 45.978,35.1127 45.978,35.1127 C46.021,22.9137 55.958,13.0037 68.166,13.0037 C76.7,13.0037 84.337,17.7707 88.1,25.4427 C88.1,25.4427 90.241,29.8277 90.952,31.2597 C91.273,31.9067 91.773,32.0627 92.356,31.6667 C93.538,30.8647 97.688,27.8887 97.688,27.8887 C100.256,26.0737 103.267,25.1147 106.394,25.1147 C114.734,25.1147 121.519,31.8997 121.519,40.2397 C121.519,41.0607 121.437,41.9277 121.267,42.8877 C121.267,42.8877 120.628,46.1227 120.482,47.3417 C120.429,47.7817 120.46,47.9997 120.867,48.1877 C121.768,48.6037 125.146,50.0077 125.146,50.0077 C130.825,52.3987 134.494,57.9257 134.494,64.0857 C134.494,72.5037 127.645,79.3527 119.227,79.3527 L116.727,79.3527 L116.727,92.3527 L119.227,92.3527 C134.813,92.3527 147.494,79.6717 147.494,64.0857 C147.494,54.3357 142.529,45.4437 134.519,40.3037" id="Fill-1" fill="#FFFFFF" mask="url(#mask-2)"></path>
            </g>
            <g id="Group-6" transform="translate(40.000000, 45.996000)">
                <mask id="mask-4" fill="white">
                    <use xlink:href="#path-3"></use>
                </mask>
                <g id="Clip-5"></g>
                <path d="M70.6007,40.4583 C70.5407,38.7463 66.4117,33.1663 62.6067,33.1663 L46.4397,33.1663 L33.9397,0.8333 L19.9397,0.8333 L30.7727,33.0003 L30.7727,33.1663 L6.1067,33.1663 C6.1067,33.1663 2.1327,38.3593 0.8037,40.0623 C0.6267,40.2903 0.6277,40.6613 0.8037,40.8903 C1.9447,42.3753 6.1067,47.7913 6.1067,47.7913 L30.4507,47.7913 L19.9397,79.0003 L33.9397,79.0003 L46.0047,47.7913 L62.6067,47.7913 C66.4117,47.7913 70.5407,42.2113 70.6007,40.5003 L70.6067,40.5003 C70.6067,40.4933 70.6037,40.4853 70.6037,40.4793 C70.6037,40.4733 70.6067,40.4643 70.6067,40.4583 L70.6007,40.4583 Z" id="Fill-4" fill="#FFFFFF" mask="url(#mask-4)"></path>
            </g>
        </g>
    </g>
</svg>
